# xmcd
# 
# Track frame offsets:
#     150
#     15608
#     35266
#     47251
#     69527
#     86097
#     91464
#     114004
#     126592
#     142271
#     157151
#     166873
#     181183
# 
# Disc length: 2651
# 
# Revision: 0
# Processed by: cddbd v1.5.2PL0 Copyright (c) Steve Scherf et al.
# Submitted via: fre:ac v1.0.27
# 
DISCID=a80a590d
DTITLE=Trevor Baker - Sill some left...
DYEAR=2016
DGENRE=Country
TTITLE0=Wait A Minute
TTITLE1=Still Some Left
TTITLE2=Sign Me Up
TTITLE3=Where Are The Warnings?
TTITLE4=The Show Goes On
TTITLE5=Just a Thought
TTITLE6=I'm Going Up
TTITLE7=Takin' Some Notes
TTITLE8=Missed The Boat
TTITLE9=Shame On You
TTITLE10=Album Overview
TTITLE11=Let's Go Home
TTITLE12=O Canada
EXTD=
EXTT0=
EXTT1=
EXTT2=
EXTT3=
EXTT4=
EXTT5=
EXTT6=
EXTT7=
EXTT8=
EXTT9=
EXTT10=
EXTT11=
EXTT12=
PLAYORDER=
